<?xml version="1.0" encoding="UTF-8" standalone="no"?>
<svg
   xmlns:rdf="http://www.w3.org/1999/02/22-rdf-syntax-ns#"
   xmlns:svg="http://www.w3.org/2000/svg"
   xmlns="http://www.w3.org/2000/svg"
   version="1.1"
   width="200px"
   viewBox="0 0 222 222">
  <g
     transform="translate(111,111)">
    <circle
       stroke-width="2"
       stroke="#aaa"
       fill="#eee"
       r="110"
       cy="0"
       cx="0" />
    <g>
      <path
         transform="translate(6,0) rotate(-90) scale(0.3)"
         fill="#aa386b"
         d="M 0,0 C 0,0 35,46.45 35,65 35,83.55 18.55,100 0,100 -18.55,100 -35,83.55 -35,65 -35,46.45 0,0 0,0 Z" />
      <path
         transform="translate(3.000000000000001,5.196152422706632) rotate(-30) scale(0.7)"
         fill="#0099ad"
         d="M 0,0 C 0,0 35,46.45 35,65 35,83.55 18.55,100 0,100 -18.55,100 -35,83.55 -35,65 -35,46.45 0,0 0,0 Z" />
      <path
         transform="translate(-2.9999999999999987,5.196152422706632) rotate(30) scale(0.6)"
         fill="#637a84"
         d="M 0,0 C 0,0 35,46.45 35,65 35,83.55 18.55,100 0,100 -18.55,100 -35,83.55 -35,65 -35,46.45 0,0 0,0 Z" />
      <path
         transform="translate(-6,7.347880794884119e-16) rotate(90) scale(0.9)"
         fill="#96bf0c"
         d="M 0,0 C 0,0 35,46.45 35,65 35,83.55 18.55,100 0,100 -18.55,100 -35,83.55 -35,65 -35,46.45 0,0 0,0 Z" />
      <path
         transform="translate(-3.0000000000000027,-5.19615242270663) rotate(150) scale(0.7)"
         fill="#ffdd00"
         d="M 0,0 C 0,0 35,46.45 35,65 35,83.55 18.55,100 0,100 -18.55,100 -35,83.55 -35,65 -35,46.45 0,0 0,0 Z" />
      <path
         transform="translate(3.000000000000001,-5.196152422706632) rotate(210) scale(0.7)"
         fill="#e56091"
         d="M 0,0 C 0,0 35,46.45 35,65 35,83.55 18.55,100 0,100 -18.55,100 -35,83.55 -35,65 -35,46.45 0,0 0,0 Z" />
    </g>
  </g>
</svg>
