<svg viewBox="0 0 222 222" width="200px" data-reactid=".0"><g transform="translate(111,111)" data-reactid=".0.0"><circle cx="0" cy="0" r="110" fill="#eee" stroke="#aaa" stroke-width="2" data-reactid=".0.0.0"></circle><g data-reactid=".0.0.1"><path d="M 0,0 C 0,0 35,46.45 35,65 35,83.55 18.55,100 0,100 -18.55,100 -35,83.55 -35,65 -35,46.45 0,0 0,0 Z" fill="#aa386b" transform="translate(6,0) rotate(-90) scale(0.3)" data-reactid=".0.0.1.0"></path><path d="M 0,0 C 0,0 35,46.45 35,65 35,83.55 18.55,100 0,100 -18.55,100 -35,83.55 -35,65 -35,46.45 0,0 0,0 Z" fill="#0099ad" transform="translate(3.000000000000001,5.196152422706632) rotate(-30) scale(0.7)" data-reactid=".0.0.1.1"></path><path d="M 0,0 C 0,0 35,46.45 35,65 35,83.55 18.55,100 0,100 -18.55,100 -35,83.55 -35,65 -35,46.45 0,0 0,0 Z" fill="#637a84" transform="translate(-2.9999999999999987,5.196152422706632) rotate(30) scale(0.6)" data-reactid=".0.0.1.2"></path><path d="M 0,0 C 0,0 35,46.45 35,65 35,83.55 18.55,100 0,100 -18.55,100 -35,83.55 -35,65 -35,46.45 0,0 0,0 Z" fill="#96bf0c" transform="translate(-6,7.347880794884119e-16) rotate(90) scale(0.9)" data-reactid=".0.0.1.3"></path><path d="M 0,0 C 0,0 35,46.45 35,65 35,83.55 18.55,100 0,100 -18.55,100 -35,83.55 -35,65 -35,46.45 0,0 0,0 Z" fill="#ffdd00" transform="translate(-3.0000000000000027,-5.19615242270663) rotate(150) scale(0.7)" data-reactid=".0.0.1.4"></path><path d="M 0,0 C 0,0 35,46.45 35,65 35,83.55 18.55,100 0,100 -18.55,100 -35,83.55 -35,65 -35,46.45 0,0 0,0 Z" fill="#e56091" transform="translate(3.000000000000001,-5.196152422706632) rotate(210) scale(0.7)" data-reactid=".0.0.1.5"></path></g></g></svg>